<svg width="16" height="16" viewBox="0 0 16 16" fill="none" xmlns="http://www.w3.org/2000/svg">
<path fill-rule="evenodd" clip-rule="evenodd" d="M3.83333 3.99992C3.83333 4.64425 3.311 5.16658 2.66667 5.16658C2.02233 5.16658 1.5 4.64425 1.5 3.99992C1.5 3.35559 2.02233 2.83325 2.66667 2.83325C3.311 2.83325 3.83333 3.35559 3.83333 3.99992ZM13.9167 4.58325H5.58333C5.42862 4.58325 5.28025 4.52179 5.17085 4.4124C5.06146 4.303 5 4.15463 5 3.99992C5 3.84521 5.06146 3.69684 5.17085 3.58744C5.28025 3.47804 5.42862 3.41659 5.58333 3.41659H13.9167C14.0714 3.41659 14.2198 3.47804 14.3291 3.58744C14.4385 3.69684 14.5 3.84521 14.5 3.99992C14.5 4.15463 14.4385 4.303 14.3291 4.4124C14.2198 4.52179 14.0714 4.58325 13.9167 4.58325ZM5.58333 7.49992H13.9167C14.0714 7.49992 14.2198 7.56138 14.3291 7.67077C14.4385 7.78017 14.5 7.92854 14.5 8.08325C14.5 8.23796 14.4385 8.38634 14.3291 8.49573C14.2198 8.60513 14.0714 8.66659 13.9167 8.66659H5.58333C5.42862 8.66659 5.28025 8.60513 5.17085 8.49573C5.06146 8.38634 5 8.23796 5 8.08325C5 7.92854 5.06146 7.78017 5.17085 7.67077C5.28025 7.56138 5.42862 7.49992 5.58333 7.49992ZM13.9167 11.5833H5.58333C5.42862 11.5833 5.28025 11.6447 5.17085 11.7541C5.06146 11.8635 5 12.0119 5 12.1666C5 12.3213 5.06146 12.4697 5.17085 12.5791C5.28025 12.6885 5.42862 12.7499 5.58333 12.7499H13.9167C14.0714 12.7499 14.2198 12.6885 14.3291 12.5791C14.4385 12.4697 14.5 12.3213 14.5 12.1666C14.5 12.0119 14.4385 11.8635 14.3291 11.7541C14.2198 11.6447 14.0714 11.5833 13.9167 11.5833ZM2.66667 9.24992C3.311 9.24992 3.83333 8.72758 3.83333 8.08325C3.83333 7.43892 3.311 6.91658 2.66667 6.91658C2.02233 6.91658 1.5 7.43892 1.5 8.08325C1.5 8.72758 2.02233 9.24992 2.66667 9.24992ZM3.83333 12.1666C3.83333 12.8109 3.311 13.3333 2.66667 13.3333C2.02233 13.3333 1.5 12.8109 1.5 12.1666C1.5 11.5223 2.02233 10.9999 2.66667 10.9999C3.311 10.9999 3.83333 11.5223 3.83333 12.1666Z" fill="#293642"/>
</svg>
