<svg width="16" height="16" viewBox="0 0 16 16" fill="none" xmlns="http://www.w3.org/2000/svg">
<path fill-rule="evenodd" clip-rule="evenodd" d="M15 8C15 11.866 11.866 15 8 15C4.13401 15 1 11.866 1 8C1 4.13401 4.13401 1 8 1C11.866 1 15 4.13401 15 8ZM14 7.98918C14 11.3029 11.3137 13.9892 8 13.9892C4.68629 13.9892 2 11.3029 2 7.98918C2 4.67547 4.68629 1.98918 8 1.98918C11.3137 1.98918 14 4.67547 14 7.98918ZM11.5202 6.18689C11.7155 5.99162 11.7155 5.67504 11.5202 5.47978C11.325 5.28452 11.0084 5.28452 10.8131 5.47978L6.75 9.54289L5.35355 8.14645C5.15829 7.95118 4.84171 7.95118 4.64645 8.14645C4.45118 8.34171 4.45118 8.65829 4.64645 8.85355L6.39645 10.6036C6.59171 10.7988 6.90829 10.7988 7.10355 10.6036L11.5202 6.18689Z" fill="#293642"/>
</svg>
