<svg width="16" height="16" viewBox="0 0 16 16" fill="none" xmlns="http://www.w3.org/2000/svg">
<path fill-rule="evenodd" clip-rule="evenodd" d="M8 2.44922C11.6107 2.44922 13.6679 4.92047 14.5723 6.39342C14.8519 6.84563 15 7.36679 15 7.89845C15 8.43011 14.8519 8.95126 14.5723 9.40348C13.6679 10.8764 11.6107 13.3477 8 13.3477C4.38934 13.3477 2.3321 10.8764 1.42768 9.40348C1.1481 8.95126 1 8.43011 1 7.89845C1 7.36679 1.1481 6.84563 1.42768 6.39342C2.3321 4.92047 4.38934 2.44922 8 2.44922ZM8 12.1814C11.0433 12.1814 12.8014 10.056 13.5781 8.79295C13.7442 8.52416 13.8322 8.21443 13.8322 7.89845C13.8322 7.58247 13.7442 7.27274 13.5781 7.00395C12.8014 5.73858 11.0433 3.61545 8 3.61545C4.95671 3.61545 3.19861 5.74092 2.4219 7.00395C2.25579 7.27274 2.16781 7.58247 2.16781 7.89845C2.16781 8.21443 2.25579 8.52416 2.4219 8.79295C3.19861 10.056 4.95671 12.1814 8 12.1814ZM6.38041 5.4742C6.85988 5.15384 7.42357 4.98284 8.00022 4.98284C8.7732 4.98377 9.51425 5.29124 10.0608 5.83782C10.6074 6.3844 10.9149 7.12545 10.9158 7.89843C10.9158 8.47507 10.7448 9.03877 10.4244 9.51824C10.1041 9.9977 9.64872 10.3714 9.11597 10.5921C8.58322 10.8128 7.99699 10.8705 7.43142 10.758C6.86585 10.6455 6.34634 10.3678 5.93859 9.96006C5.53084 9.55231 5.25316 9.0328 5.14066 8.46723C5.02816 7.90166 5.0859 7.31543 5.30657 6.78268C5.52725 6.24993 5.90094 5.79457 6.38041 5.4742ZM7.02834 9.35296C7.31601 9.54518 7.65423 9.64778 8.00022 9.64778C8.46418 9.64778 8.90914 9.46347 9.2372 9.13541C9.56527 8.80734 9.74958 8.36238 9.74958 7.89843C9.74958 7.55244 9.64698 7.21422 9.45476 6.92654C9.26254 6.63886 8.98932 6.41464 8.66967 6.28224C8.35002 6.14983 7.99828 6.11519 7.65894 6.18269C7.3196 6.25019 7.0079 6.4168 6.76324 6.66145C6.51859 6.9061 6.35198 7.2178 6.28448 7.55714C6.21699 7.89649 6.25163 8.24822 6.38403 8.56787C6.51644 8.88753 6.74066 9.16074 7.02834 9.35296Z" fill="#293642"/>
</svg>
