<svg width="16" height="16" viewBox="0 0 16 16" fill="none" xmlns="http://www.w3.org/2000/svg">
<path d="M8.56452 10.3334C9.49603 10.3334 10.4066 10.0597 11.1812 9.54688C11.9557 9.03411 12.5594 8.30527 12.9158 7.45256C13.2723 6.59984 13.3656 5.66153 13.1839 4.75629C13.0021 3.85105 12.5536 3.01953 11.8949 2.36689C11.2362 1.71425 10.397 1.26979 9.48336 1.08973C8.56974 0.909668 7.62275 1.00208 6.76214 1.35529C5.90153 1.7085 5.16595 2.30663 4.64843 3.07406C4.1309 3.84149 3.85467 4.74373 3.85467 5.66671C3.85608 6.90395 4.35274 8.09013 5.2357 8.96499C6.11867 9.83986 7.31582 10.332 8.56452 10.3334ZM8.56452 2.16672C9.26315 2.16672 9.9461 2.37199 10.527 2.75658C11.1079 3.14116 11.5607 3.68778 11.828 4.32732C12.0954 4.96686 12.1653 5.67059 12.029 6.34952C11.8927 7.02845 11.5563 7.65209 11.0623 8.14157C10.5683 8.63105 9.93886 8.96439 9.25365 9.09944C8.56843 9.23449 7.85819 9.16518 7.21273 8.90027C6.56727 8.63537 6.01559 8.18677 5.62745 7.6112C5.23931 7.03563 5.03213 6.35894 5.03213 5.66671C5.03307 4.73874 5.40553 3.84904 6.06778 3.19287C6.73002 2.5367 7.62796 2.16765 8.56452 2.16672ZM14.3971 9.61761C13.8037 10.4742 13.0252 11.1891 12.1182 11.7104C11.2111 12.2316 10.1983 12.5462 9.15325 12.6311V13.8333H11.5082C11.6643 13.8333 11.8141 13.8948 11.9245 14.0042C12.0349 14.1136 12.0969 14.262 12.0969 14.4167C12.0969 14.5714 12.0349 14.7198 11.9245 14.8291C11.8141 14.9385 11.6643 15 11.5082 15H5.62086C5.46472 15 5.31498 14.9385 5.20457 14.8291C5.09416 14.7198 5.03213 14.5714 5.03213 14.4167C5.03213 14.262 5.09416 14.1136 5.20457 14.0042C5.31498 13.8948 5.46472 13.8333 5.62086 13.8333H7.97579V12.6369C6.69085 12.531 5.45971 12.0785 4.4159 11.3285C3.37209 10.5785 2.55545 9.55966 2.05457 8.38244C1.55369 7.20523 1.38769 5.9146 1.57456 4.65053C1.76143 3.38647 2.29405 2.19724 3.11464 1.21181C3.2141 1.09253 3.35731 1.01728 3.51277 1.00263C3.66822 0.987967 3.82319 1.0351 3.94357 1.13365C4.06396 1.2322 4.1399 1.37409 4.15469 1.52812C4.16949 1.68215 4.12192 1.83569 4.02246 1.95498C3.51707 2.56311 3.14122 3.26636 2.9176 4.02233C2.69398 4.7783 2.62721 5.57132 2.72133 6.35355C2.81545 7.13578 3.0685 7.89102 3.46522 8.57372C3.86194 9.25641 4.39411 9.85241 5.02963 10.3258C5.66515 10.7991 6.39085 11.1401 7.16296 11.328C7.93508 11.5159 8.73761 11.5469 9.52214 11.4191C10.3067 11.2913 11.057 11.0074 11.7277 10.5845C12.3985 10.1616 12.9759 9.60846 13.4251 8.95844C13.5133 8.83073 13.6491 8.74297 13.8026 8.71448C13.9561 8.68598 14.1148 8.71908 14.2437 8.80649C14.3726 8.8939 14.4612 9.02846 14.4899 9.18058C14.5187 9.33269 14.4853 9.48989 14.3971 9.61761Z" fill="#293642"/>
</svg>
