<svg width="16" height="16" viewBox="0 0 16 16" fill="none" xmlns="http://www.w3.org/2000/svg">
<path fill-rule="evenodd" clip-rule="evenodd" d="M15 8C15 11.866 11.866 15 8 15C4.13401 15 1 11.866 1 8C1 4.13401 4.13401 1 8 1C11.866 1 15 4.13401 15 8ZM14 7.98918C14 11.3029 11.3137 13.9892 8 13.9892C4.68629 13.9892 2 11.3029 2 7.98918C2 4.67547 4.68629 1.98918 8 1.98918C11.3137 1.98918 14 4.67547 14 7.98918ZM8.1528 5.40783C7.87083 5.35745 7.57937 5.41205 7.32873 5.5655C7.0774 5.71936 6.88087 5.96459 6.78027 6.26249C6.67072 6.58689 6.31893 6.76106 5.99453 6.65151C5.67013 6.54196 5.49596 6.19017 5.60551 5.86577C5.79643 5.30044 6.17529 4.81778 6.68132 4.50799C7.18804 4.19778 7.78702 4.0829 8.37089 4.18722C8.9544 4.29148 9.47823 4.60657 9.85248 5.06968C10.2262 5.53214 10.4281 6.11347 10.4273 6.71042C10.4271 7.67322 9.73942 8.31913 9.23099 8.67221C8.96074 8.85988 8.69471 8.998 8.49848 9.08885C8.3849 9.14143 8.26981 9.19149 8.15156 9.23273L8.15076 9.233C7.82731 9.34531 7.47405 9.17415 7.36174 8.85069C7.24948 8.5274 7.42042 8.17434 7.74355 8.06184L7.75297 8.05839C7.7624 8.0549 7.77792 8.04904 7.79865 8.04081C7.84023 8.02431 7.90216 7.99855 7.97755 7.96364C8.13006 7.89304 8.329 7.78899 8.52373 7.65376C8.94517 7.36109 9.18735 7.03846 9.18735 6.70993L9.18735 6.70904C9.1878 6.39106 9.08001 6.08652 8.88809 5.84903C8.6966 5.61208 8.43511 5.45827 8.1528 5.40783ZM7.37696 11.2304C7.37696 10.888 7.65453 10.6104 7.99693 10.6104H8.00313C8.34553 10.6104 8.6231 10.888 8.6231 11.2304C8.6231 11.5728 8.34553 11.8504 8.00313 11.8504H7.99693C7.65453 11.8504 7.37696 11.5728 7.37696 11.2304Z" fill="#293642"/>
</svg>
