<svg width="16" height="16" viewBox="0 0 16 16" fill="none" xmlns="http://www.w3.org/2000/svg">
<path d="M14.5203 8.91798C13.8806 8.2783 12.8396 8.2783 12.2003 8.91756L9.19769 11.9133C9.13392 11.9769 9.08692 12.0553 9.06075 12.1415L8.40681 14.2941C8.34881 14.485 8.39944 14.6922 8.53863 14.835C8.64299 14.9419 8.78473 15 8.93022 15C8.97882 15 9.02796 14.9935 9.07613 14.98L11.2836 14.3686C11.3744 14.3434 11.4572 14.2953 11.524 14.2287L14.5203 11.2382C15.1599 10.5984 15.1599 9.55767 14.5203 8.91798ZM10.853 13.353L9.74246 13.6606L10.0675 12.5907L12.0934 10.5693L12.8671 11.3428L10.853 13.353ZM13.7471 10.4644L13.6412 10.5701L12.8677 9.79672L12.9734 9.69129C13.1866 9.4781 13.5335 9.4781 13.7468 9.69129C13.96 9.9046 13.96 10.2515 13.7471 10.4644ZM7.26205 14.453C7.26205 14.7551 7.01723 14.9999 6.71515 14.9999H3.18762C1.98144 14.9999 1 14.0186 1 12.8124V3.18748C1 1.98127 1.98144 1 3.18762 1H9.91155C11.1178 1 12.0992 1.98127 12.0992 3.18748V7.39839C12.0992 7.70045 11.8543 7.94526 11.5523 7.94526C11.2502 7.94526 11.0054 7.70045 11.0054 7.39839V3.18748C11.0054 2.58443 10.5146 2.09374 9.91155 2.09374H3.18762C2.58453 2.09374 2.09381 2.58443 2.09381 3.18748V12.8124C2.09381 13.4155 2.58453 13.9062 3.18762 13.9062H6.71515C7.01723 13.9062 7.26205 14.151 7.26205 14.453ZM9.91454 5.07419C9.91454 5.37625 9.66971 5.62106 9.36763 5.62106H7.75427C7.45219 5.62106 7.20736 5.37625 7.20736 5.07419C7.20736 4.77213 7.45219 4.52732 7.75427 4.52732H9.36763C9.66971 4.52732 9.91454 4.77213 9.91454 5.07419ZM6.6173 3.94595L5.34084 5.49075C5.17442 5.69593 4.9281 5.82346 4.66437 5.84109C4.64343 5.84248 4.62239 5.84323 4.60145 5.84323C4.35812 5.84323 4.12141 5.74934 3.9442 5.58058C3.93918 5.57588 3.93427 5.57096 3.92936 5.56594L3.34272 4.96353C3.13197 4.74713 3.13667 4.40096 3.35297 4.19022C3.56938 3.97948 3.91558 3.98408 4.12633 4.20048L4.59258 4.6792L5.77398 3.24933C5.96636 3.01648 6.31117 2.98369 6.54392 3.17605C6.77678 3.36842 6.80958 3.7131 6.6173 3.94595ZM9.36763 8.98431H7.75427C7.45219 8.98431 7.20736 8.7395 7.20736 8.43744C7.20736 8.13538 7.45219 7.89057 7.75427 7.89057H9.36763C9.66971 7.89057 9.91454 8.13538 9.91454 8.43744C9.91454 8.7395 9.66971 8.98431 9.36763 8.98431ZM6.6173 7.30578L5.34084 8.85069C5.17442 9.05577 4.9281 9.18341 4.66437 9.20093C4.64343 9.20231 4.62239 9.20306 4.60145 9.20306C4.35801 9.20306 4.12141 9.10918 3.9441 8.94041C3.9395 8.93604 3.93491 8.93155 3.93042 8.92696L3.34378 8.32786C3.1325 8.1121 3.13613 7.76582 3.3519 7.55455C3.56767 7.34317 3.91397 7.3468 4.12526 7.56266L4.59226 8.03947L5.77398 6.60916C5.96636 6.37632 6.31117 6.34363 6.54392 6.53589C6.77678 6.72826 6.80958 7.07294 6.6173 7.30578ZM6.6173 10.6144L5.34084 12.1593C5.17442 12.3643 4.9281 12.492 4.66437 12.5095C4.64343 12.5109 4.62239 12.5116 4.60145 12.5116C4.35801 12.5116 4.12141 12.4177 3.9441 12.249C3.9395 12.2446 3.93491 12.2401 3.93042 12.2355L3.34378 11.6364C3.1325 11.4207 3.13613 11.0744 3.3519 10.8631C3.56767 10.6517 3.91397 10.6554 4.12526 10.8712L4.59226 11.348L5.77398 9.91773C5.96636 9.68489 6.31117 9.6522 6.54392 9.84446C6.77678 10.0368 6.80958 10.3815 6.6173 10.6144Z" fill="#293642"/>
</svg>
