<svg width="16" height="16" viewBox="0 0 16 16" fill="none" xmlns="http://www.w3.org/2000/svg">
<path fill-rule="evenodd" clip-rule="evenodd" d="M10.0278 7.41015C9.45224 7.79473 8.77555 8 8.08331 8C7.15534 7.99908 6.26564 7.63003 5.60946 6.97385C4.95329 6.31768 4.58424 5.42798 4.58331 4.5C4.58331 3.80777 4.78858 3.13108 5.17317 2.55551C5.55775 1.97993 6.10438 1.53133 6.74392 1.26642C7.38346 1.00152 8.0872 0.932205 8.76613 1.06725C9.44506 1.2023 10.0687 1.53564 10.5582 2.02513C11.0477 2.51461 11.381 3.13825 11.5161 3.81719C11.6511 4.49612 11.5818 5.19985 11.3169 5.8394C11.052 6.47894 10.6034 7.02556 10.0278 7.41015ZM9.37965 2.55991C8.99593 2.30352 8.5448 2.16667 8.08331 2.16667C7.46448 2.16667 6.87098 2.4125 6.4334 2.85009C5.99581 3.28767 5.74998 3.88116 5.74998 4.5C5.74998 4.96149 5.88683 5.41262 6.14322 5.79633C6.39961 6.18005 6.76402 6.47912 7.19039 6.65572C7.61675 6.83233 8.0859 6.87853 8.53853 6.7885C8.99115 6.69847 9.40691 6.47624 9.73323 6.14992C10.0596 5.8236 10.2818 5.40784 10.3718 4.95521C10.4618 4.50259 10.4156 4.03344 10.239 3.60707C10.0624 3.18071 9.76336 2.8163 9.37965 2.55991ZM4.37271 10.7061C5.35694 9.72183 6.6914 9.16821 8.08331 9.16667C9.47522 9.16821 10.8097 9.72183 11.7939 10.7061C12.7781 11.6903 13.3318 13.0248 13.3333 14.4167C13.3333 14.5714 13.2719 14.7197 13.1625 14.8291C13.0531 14.9385 12.9047 15 12.75 15C12.5953 15 12.4469 14.9385 12.3375 14.8291C12.2281 14.7197 12.1666 14.5714 12.1666 14.4167C12.1666 13.3337 11.7364 12.2951 10.9707 11.5293C10.2049 10.7635 9.16628 10.3333 8.08331 10.3333C7.00035 10.3333 5.96173 10.7635 5.19596 11.5293C4.43019 12.2951 3.99998 13.3337 3.99998 14.4167C3.99998 14.5714 3.93852 14.7197 3.82913 14.8291C3.71973 14.9385 3.57136 15 3.41665 15C3.26194 15 3.11356 14.9385 3.00417 14.8291C2.89477 14.7197 2.83331 14.5714 2.83331 14.4167C2.83486 13.0248 3.38848 11.6903 4.37271 10.7061Z" fill="#293642"/>
</svg>
