<svg width="16" height="16" viewBox="0 0 16 16" fill="none" xmlns="http://www.w3.org/2000/svg">
<path fill-rule="evenodd" clip-rule="evenodd" d="M10.8738 5.04044C10.4833 4.64992 10.4833 4.01675 10.8738 3.62623L12.275 2.22499C11.9346 2.08014 11.56 2 11.1667 2C9.60187 2 8.33334 3.26853 8.33334 4.83333C8.33334 5.24908 8.42289 5.64391 8.58374 5.9996L2.29045 12.2929C1.89993 12.6834 1.89993 13.3166 2.29045 13.7071C2.68098 14.0976 3.31414 14.0976 3.70466 13.7071L9.99703 7.41474C10.3536 7.57655 10.7496 7.66667 11.1667 7.66667C12.7315 7.66667 14 6.39814 14 4.83333C14 4.39399 13.9 3.97801 13.7215 3.6069L12.288 5.04044C11.8975 5.43097 11.2643 5.43097 10.8738 5.04044Z" fill="#293642"/>
</svg>
